# xmcd CD database file
#
# Track frame offsets:
#	150
#	14267
#	27298
#	52676
#	71244
#	85486
#	106040
#	120374
#	136422
#	156972
#	170755
#	190855
#	206735
#	220540
#	247095
#
# Disc length: 3481 seconds
#
# Revision: 1
# Processed by: cddbd v1.5.1PL2 Copyright (c) Steve Scherf et al.
# Submitted via: CDex 1.51
#
DISCID=cd0d970f
DTITLE=J.J. Cale - Live
DYEAR=2001
DGENRE=Blues
TTITLE0=After Midnight
TTITLE1=Old Man
TTITLE2=Call Me The Breeze
TTITLE3=Sensitive Kind
TTITLE4=Cocaine
TTITLE5=Money Talks
TTITLE6=River Boat Song
TTITLE7=Living Here Too
TTITLE8=Mama Don't
TTITLE9=People Lie
TTITLE10=Humdinger
TTITLE11=Thirteen Days
TTITLE12=Magnolia
TTITLE13=Ride Me High
TTITLE14=Like You Used Too
EXTD=YEAR: 2001
EXTT0=
EXTT1=
EXTT2=
EXTT3=
EXTT4=
EXTT5=
EXTT6=
EXTT7=
EXTT8=
EXTT9=
EXTT10=
EXTT11=
EXTT12=
EXTT13=
EXTT14=
PLAYORDER=
